REM DIRINDEX 1\2\3,1\2\4,1\2\5,1\2\6
REM DIRNAME folder01,folder02,folder03,folder04,folder05,folder06
TITLE ""
FILE "173 173.mp3" MP3
  TRACK 01 AUDIO
    TITLE "0:"
    INDEX 01 00:00:00
  TRACK 02 AUDIO
    TITLE "3:cjc157_6288"
    INDEX 01 00:00:11
  TRACK 03 AUDIO
    TITLE "0:"
    INDEX 01 00:01:28
  TRACK 04 AUDIO
    TITLE "4:cjc157_6289"
    INDEX 01 00:02:00
  TRACK 05 AUDIO
    TITLE "0:"
    INDEX 01 00:03:25
  TRACK 06 AUDIO
    TITLE "5:cjc157_6290"
    INDEX 01 00:03:66
  TRACK 07 AUDIO
    TITLE "0:"
    INDEX 01 00:07:19
  TRACK 08 AUDIO
    TITLE "5:cjc157_6291"
    INDEX 01 00:07:64
  TRACK 09 AUDIO
    TITLE "0:"
    INDEX 01 00:10:00
  TRACK 10 AUDIO
    TITLE "3:cjc157_6292"
    INDEX 01 00:10:49
  TRACK 11 AUDIO
    TITLE "0:"
    INDEX 01 00:12:26
  TRACK 12 AUDIO
    TITLE "4:cjc157_6293"
    INDEX 01 00:12:73
  TRACK 13 AUDIO
    TITLE "0:"
    INDEX 01 00:14:56
  TRACK 14 AUDIO
    TITLE "5:cjc157_6294"
    INDEX 01 00:15:27
  TRACK 15 AUDIO
    TITLE "0:"
    INDEX 01 00:17:70
  TRACK 16 AUDIO
    TITLE "3:cjc157_6295"
    INDEX 01 00:18:42
  TRACK 17 AUDIO
    TITLE "0:"
    INDEX 01 00:20:02
  TRACK 18 AUDIO
    TITLE "4:cjc157_6296"
    INDEX 01 00:20:47
  TRACK 19 AUDIO
    TITLE "0:"
    INDEX 01 00:22:05
  TRACK 20 AUDIO
    TITLE "5:cjc157_6297"
    INDEX 01 00:22:50
  TRACK 21 AUDIO
    TITLE "0:"
    INDEX 01 00:25:27
  TRACK 22 AUDIO
    TITLE "5:cjc157_6298"
    INDEX 01 00:25:70
  TRACK 23 AUDIO
    TITLE "0:"
    INDEX 01 00:28:72
  TRACK 24 AUDIO
    TITLE "3:cjc157_6299"
    INDEX 01 00:29:56
  TRACK 25 AUDIO
    TITLE "0:"
    INDEX 01 00:31:10
  TRACK 26 AUDIO
    TITLE "4:cjc157_6300"
    INDEX 01 00:31:59
  TRACK 27 AUDIO
    TITLE "0:"
    INDEX 01 00:32:72
  TRACK 28 AUDIO
    TITLE "5:cjc157_6301"
    INDEX 01 00:33:38
  TRACK 29 AUDIO
    TITLE "0:"
    INDEX 01 00:36:66
  TRACK 30 AUDIO
    TITLE "5:cjc157_6302"
    INDEX 01 00:37:50
  TRACK 31 AUDIO
    TITLE "0:"
    INDEX 01 00:42:19
  TRACK 32 AUDIO
    TITLE "3:cjc157_6303"
    INDEX 01 00:42:65
  TRACK 33 AUDIO
    TITLE "0:"
    INDEX 01 00:44:40
  TRACK 34 AUDIO
    TITLE "4:cjc157_6304"
    INDEX 01 00:45:16
  TRACK 35 AUDIO
    TITLE "0:"
    INDEX 01 00:47:03
  TRACK 36 AUDIO
    TITLE "5:cjc157_6305"
    INDEX 01 00:47:58
  TRACK 37 AUDIO
    TITLE "0:"
    INDEX 01 00:51:30
  TRACK 38 AUDIO
    TITLE "3:cjc157_6306"
    INDEX 01 00:52:00
  TRACK 39 AUDIO
    TITLE "0:"
    INDEX 01 00:53:53
  TRACK 40 AUDIO
    TITLE "4:cjc157_6307"
    INDEX 01 00:54:25
  TRACK 41 AUDIO
    TITLE "0:"
    INDEX 01 00:55:44
  TRACK 42 AUDIO
    TITLE "5:cjc157_6308"
    INDEX 01 00:56:16
  TRACK 43 AUDIO
    TITLE "0:"
    INDEX 01 01:00:15
  TRACK 44 AUDIO
    TITLE "3:cjc157_6309"
    INDEX 01 01:00:64
  TRACK 45 AUDIO
    TITLE "0:"
    INDEX 01 01:02:03
  TRACK 46 AUDIO
    TITLE "4:cjc157_6310"
    INDEX 01 01:02:54
  TRACK 47 AUDIO
    TITLE "0:"
    INDEX 01 01:03:67
  TRACK 48 AUDIO
    TITLE "5:cjc157_6311"
    INDEX 01 01:04:37
  TRACK 49 AUDIO
    TITLE "0:"
    INDEX 01 01:08:44
  TRACK 50 AUDIO
    TITLE "5:cjc157_6312"
    INDEX 01 01:09:20
  TRACK 51 AUDIO
    TITLE "0:"
    INDEX 01 01:12:28
  TRACK 52 AUDIO
    TITLE "3:cjc157_6313"
    INDEX 01 01:12:73
  TRACK 53 AUDIO
    TITLE "0:"
    INDEX 01 01:13:71
  TRACK 54 AUDIO
    TITLE "4:cjc157_6314"
    INDEX 01 01:14:43
  TRACK 55 AUDIO
    TITLE "0:"
    INDEX 01 01:16:07
  TRACK 56 AUDIO
    TITLE "5:cjc157_6315"
    INDEX 01 01:16:56
  TRACK 57 AUDIO
    TITLE "0:"
    INDEX 01 01:20:16
  TRACK 58 AUDIO
    TITLE "3:cjc157_6316"
    INDEX 01 01:20:69
  TRACK 59 AUDIO
    TITLE "0:"
    INDEX 01 01:22:17
  TRACK 60 AUDIO
    TITLE "4:cjc157_6317"
    INDEX 01 01:22:60
  TRACK 61 AUDIO
    TITLE "0:"
    INDEX 01 01:23:71
  TRACK 62 AUDIO
    TITLE "5:cjc157_6318"
    INDEX 01 01:24:39
  TRACK 63 AUDIO
    TITLE "0:"
    INDEX 01 01:27:24
  TRACK 64 AUDIO
    TITLE "5:cjc157_6319"
    INDEX 01 01:27:73
  TRACK 65 AUDIO
    TITLE "0:"
    INDEX 01 01:31:08
  TRACK 66 AUDIO
    TITLE "3:cjc157_6320"
    INDEX 01 01:31:67
  TRACK 67 AUDIO
    TITLE "0:"
    INDEX 01 01:33:23
  TRACK 68 AUDIO
    TITLE "4:cjc157_6321"
    INDEX 01 01:33:68
  TRACK 69 AUDIO
    TITLE "0:"
    INDEX 01 01:35:16
  TRACK 70 AUDIO
    TITLE "5:cjc157_6322"
    INDEX 01 01:35:65
  TRACK 71 AUDIO
    TITLE "0:"
    INDEX 01 01:38:59
